<svg xmlns="http://www.w3.org/2000/svg" width="290.551" height="54" viewBox="0 0 290.551 54"><defs><style>.a{fill:rgba(239,237,237,0.1);}.b,.c{stroke:none;}.c{fill:#fff;}</style></defs><g class="a"><path class="b" d="M 274.8458251953125 53.5 L 15.70549201965332 53.5 C 11.56988430023193 53.5 7.689277648925781 52.8875732421875 4.778456211090088 51.77556991577148 C 2.059420585632324 50.73682022094727 0.4999918937683105 49.36067962646484 0.4999918937683105 48 L 0.4999918937683105 6 C 0.4999918937683105 4.639321327209473 2.059420585632324 3.263178586959839 4.778456211090088 2.224428653717041 C 7.689277648925781 1.112428545951843 11.56988430023193 0.5 15.70549201965332 0.5 L 274.8458251953125 0.5 C 278.9813842773438 0.5 282.8619995117188 1.112428545951843 285.7728271484375 2.224428653717041 C 288.4918518066406 3.263178586959839 290.05126953125 4.639321327209473 290.05126953125 6 L 290.05126953125 48 C 290.05126953125 49.36067962646484 288.4918518066406 50.73682022094727 285.7728271484375 51.77556991577148 C 282.8619995117188 52.8875732421875 278.9813842773438 53.5 274.8458251953125 53.5 Z"/><path class="c" d="M 15.70547485351562 1 C 11.62939453125 1 7.8121337890625 1.600730895996094 4.9569091796875 2.691501617431641 C 2.479217529296875 3.638076782226562 0.999969482421875 4.874885559082031 0.999969482421875 6 L 0.999969482421875 48 C 0.999969482421875 49.12511444091797 2.479217529296875 50.36192321777344 4.9569091796875 51.30849838256836 C 7.8121337890625 52.39926910400391 11.62939453125 53 15.70547485351562 53 L 274.8457946777344 53 C 278.921875 53 282.7391357421875 52.39926910400391 285.5943603515625 51.30849838256836 C 288.072021484375 50.36192321777344 289.5512390136719 49.12511444091797 289.5512390136719 48 L 289.5512390136719 6 C 289.5512390136719 4.874885559082031 288.072021484375 3.638076782226562 285.5943603515625 2.691501617431641 C 282.7391357421875 1.600730895996094 278.921875 1 274.8457946777344 1 L 15.70547485351562 1 M 15.70547485351562 0 L 274.8457946777344 0 C 283.5196838378906 0 290.5512390136719 2.686305999755859 290.5512390136719 6 L 290.5512390136719 48 C 290.5512390136719 51.31369400024414 283.5196838378906 54 274.8457946777344 54 L 15.70547485351562 54 C 7.031585693359375 54 -3.0517578125e-05 51.31369400024414 -3.0517578125e-05 48 L -3.0517578125e-05 6 C -3.0517578125e-05 2.686305999755859 7.031585693359375 0 15.70547485351562 0 Z"/></g></svg>